# File created by Blade
# Date/Time:  Wed Apr 08 14:55:03 2015
# Frame Rate: 120.000 fps
#------------------------------------------------------
:FULLY-SPECIFIED
:DEGREES
1112
root 8.515315 32.585938 -6.319815 14.536672 26.544196 -3.527119
Spine -10.592746 -8.261261 -2.458703
Head 0.130771 -26.718127 14.045874
LeftShoulder -21.511016 50.634164 8.218835
LeftArm 52.898692 15.650862 -63.411648
LeftForeArm 15.440886 -0.000000 109.535807
LeftHand -4.347950 -0.000000 -17.668831
LeftHandThumb1 -26.253704 0.000000 33.147579
RightShoulder -6.450092 -10.616897 -16.756394
RightArm 17.437798 -39.565795 78.471991
RightForeArm 0.195059 -0.000000 108.182297
RightHand 10.784313 -0.000000 -3.163716
RightHandThumb1 -24.326973 -0.000000 -32.862282
LeftUpLeg -22.885914 -0.982603 0.486264
LeftLeg 19.716134 -0.000000 -0.000000
LeftFoot -15.044120 17.074755 -18.832444
LeftToeBase -13.159408 -0.000000 0.000000
RightUpLeg -24.654002 -4.084259 -0.249315
RightLeg 50.325193 -0.000000 -0.000000
RightFoot -16.973067 -16.134635 15.634510
RightToeBase -10.154060 -0.000000 0.000000
1113
root 8.503269 32.582859 -6.444542 14.603027 25.859464 -3.471575
Spine -10.788087 -8.028616 -2.470078
Head 0.296010 -26.430509 13.874816
LeftShoulder -21.549160 50.667762 8.101680
LeftArm 52.806248 15.850301 -63.543477
LeftForeArm 14.715652 -0.000000 109.580914
LeftHand -3.986527 -0.000000 -17.174340
LeftHandThumb1 -26.253704 0.000000 33.147579
RightShoulder -6.519411 -10.630766 -16.747325
RightArm 17.415206 -39.555709 78.253141
RightForeArm 0.153287 -0.000000 108.192760
RightHand 10.625604 -0.000000 -2.651271
RightHandThumb1 -24.326973 -0.000000 -32.862282
LeftUpLeg -23.065054 -0.759865 0.299292
LeftLeg 19.690215 -0.000000 -0.000000
LeftFoot -15.032002 17.370424 -18.868897
LeftToeBase -13.077118 -0.000000 0.000000
RightUpLeg -23.707301 -4.142322 -0.121246
RightLeg 50.458526 -0.000000 -0.000000
RightFoot -16.662589 -16.502858 15.708422
RightToeBase -10.273873 -0.000000 0.000000
1114
root 8.500256 32.579013 -6.565553 14.604264 25.126297 -3.348161
Spine -10.892143 -7.772140 -2.555097
Head 0.470785 -26.124246 13.696003
LeftShoulder -21.665409 50.706587 7.889962
LeftArm 52.742948 16.050145 -63.650219
LeftForeArm 13.939019 -0.000000 109.584903
LeftHand -3.525881 -0.000000 -16.635997
LeftHandThumb1 -26.253704 0.000000 33.147579
RightShoulder -6.530686 -10.704856 -16.741200
RightArm 17.504693 -39.514954 77.981867
RightForeArm 0.121447 0.000000 108.163736
RightHand 10.376229 -0.000000 -2.182399
RightHandThumb1 -24.326973 -0.000000 -32.862282
LeftUpLeg -23.094787 -0.578426 0.040515
LeftLeg 19.579593 -0.000000 -0.000000
LeftFoot -15.092217 17.798079 -19.008230
LeftToeBase -12.929412 -0.000000 0.000000
RightUpLeg -22.640884 -4.232209 -0.117770
RightLeg 50.461562 -0.000000 -0.000000
RightFoot -16.375445 -16.847957 15.748184
RightToeBase -10.166285 -0.000000 0.000000
1115
root 8.499868 32.572207 -6.688606 14.642195 24.390108 -3.164091
Spine -11.015323 -7.487795 -2.689954
Head 0.632787 -25.815930 13.481436
LeftShoulder -21.679618 50.731259 7.737513
LeftArm 52.627605 16.208641 -63.792709
LeftForeArm 13.248424 0.000000 109.628392
LeftHand -3.118816 -0.000000 -16.237954
LeftHandThumb1 -26.253704 0.000000 33.147579
RightShoulder -6.540474 -10.723556 -16.748890
RightArm 17.510389 -39.509273 77.759651
RightForeArm 0.066208 -0.000000 108.138197
RightHand 10.190125 -0.000000 -1.696843
RightHandThumb1 -24.326973 -0.000000 -32.862282
LeftUpLeg -23.125701 -0.466393 -0.272839
LeftLeg 19.434029 -0.000000 -0.000000
LeftFoot -15.171654 18.279117 -19.120820
LeftToeBase -12.408890 -0.000000 0.000000
RightUpLeg -21.589663 -4.405112 -0.209073
RightLeg 50.398982 -0.000000 -0.000000
RightFoot -16.005878 -17.128376 15.706323
RightToeBase -9.959811 -0.000000 0.000000
